<svg id="Layer_1" data-name="Layer 1" xmlns="http://www.w3.org/2000/svg" viewBox="0 0 256.86 99.36"><defs><style>.cls-1{fill:#fff9c3;}.cls-2{fill:#19194e;}.cls-2,.cls-3,.cls-4,.cls-5{fill-rule:evenodd;}.cls-3{fill:#e4310d;}.cls-4{fill:#f9f2bd;}.cls-5{fill:#1a1a18;}</style></defs><title>DotMonitoringReadme</title><rect class="cls-1" width="99.36" height="99.36" rx="17.76" ry="17.76"/><path class="cls-2" d="M110.6,397h36.69a8.59,8.59,0,0,1,6.26,2.56,8.43,8.43,0,0,1,2.59,6.23v28a8.43,8.43,0,0,1-2.59,6.23,8.59,8.59,0,0,1-6.26,2.56H110.6V397h0Zm37.13,36.75v-28a0.39,0.39,0,0,0-.44-0.44h-27.9a0.39,0.39,0,0,0-.44.44v28a0.39,0.39,0,0,0,.44.44h27.9A0.39,0.39,0,0,0,147.73,433.78Z" transform="translate(-83.69 -376.35)"/><polygon class="cls-3" points="43.02 39.02 40.68 43.12 35.25 43.12 35.25 44.56 41.44 44.56 43.08 41.34 47.3 48.79 48.18 50.21 49.32 45.94 51.46 38.46 54.75 44.56 64.03 44.56 64.03 43.12 55.36 43.12 51.1 35.58 49.66 40.36 48.44 44.62 48.44 44.62 48.16 45.59 48.17 45.6 47.75 47.11 45.9 43.85 43.02 39.02"/><path class="cls-2" d="M133.28,455h0l-14,0c0-1.83,0-1.08,1.18-2.05,2.51-2,3.67-3.28,3.67-6v-1.62h18.38v1.62c0,2.76,1.15,4,3.67,6,1.21,1,1.14.23,1.18,2.05l-14,0h-0.18Z" transform="translate(-83.69 -376.35)"/><path class="cls-4" d="M182.23,426.28l-28.68-26.69a8.43,8.43,0,0,1,2.59,6.23v28a8.43,8.43,0,0,1-2.59,6.23,8.59,8.59,0,0,1-6.26,2.56H110.6l11,9.52c1.79-1.57,2.62-2.82,2.62-5.16v-1.62h18.38v1.62c0,2.76,1.15,4,3.67,6,1.21,1,1.14.23,1.18,2.05l-14,0h-0.18l-14,0,22.38,20.7h23.59a17.83,17.83,0,0,0,16.94-12.44,17.62,17.62,0,0,0,.82-5.32V427Z" transform="translate(-83.69 -376.35)"/><path class="cls-5" d="M203.16,400.59h13.7a3.56,3.56,0,0,1,3.58,3.55v10.18a3.56,3.56,0,0,1-3.58,3.55h-13.7V400.59h0Zm3.72,3.74v9.79h9.79v-9.79h-9.79Zm19.61-.38h7.15a3.5,3.5,0,0,1,3.48,3.48v7a3.5,3.5,0,0,1-3.48,3.48h-7.15a3.52,3.52,0,0,1-3.48-3.48v-7a3.52,3.52,0,0,1,3.48-3.48h0Zm0.19,3.67v6.58h6.77v-6.58h-6.77Zm21.41,0h-5.16v6.58h5.16v3.67h-5.33a3.5,3.5,0,0,1-3.5-3.48V399.82h3.67v4.13h5.16v3.67h0ZM212.8,436.44l5.83-7h3.86v17.28h-3.74V435.15l-6,7.1-6-7.08v11.57h-3.72V429.46h3.84l5.86,7h0Zm15.94-3.62h7.15a3.5,3.5,0,0,1,3.48,3.48v7a3.5,3.5,0,0,1-3.48,3.48h-7.15a3.52,3.52,0,0,1-3.48-3.48v-7a3.52,3.52,0,0,1,3.48-3.48h0Zm0.19,3.67v6.58h6.77v-6.58h-6.77Zm22.94-3.67a3.5,3.5,0,0,1,3.48,3.48v10.44h-3.67V436.49h-6.77v10.25h-3.67V432.82h10.63Zm6,13.92V432.82h3.67v13.92H257.9Zm0-18.48h3.67V432H257.9v-3.7h0Zm14.83,8.23h-5.16v6.58h5.16v3.67H267.4a3.5,3.5,0,0,1-3.5-3.48V428.69h3.67v4.13h5.16v3.67h0Zm5.42-3.67h7.15a3.5,3.5,0,0,1,3.48,3.48v7a3.5,3.5,0,0,1-3.48,3.48h-7.15a3.52,3.52,0,0,1-3.48-3.48v-7a3.52,3.52,0,0,1,3.48-3.48h0Zm0.19,3.67v6.58h6.77v-6.58h-6.77Zm15.82-3.67h7.68v3.67h-7.51v10.25h-3.67V436.3a3.52,3.52,0,0,1,3.5-3.48h0Zm9.6,13.92V432.82h3.67v13.92h-3.67Zm0-18.48h3.67V432h-3.67v-3.7h0Zm17.14,4.56a3.5,3.5,0,0,1,3.48,3.48v10.44h-3.67V436.49h-6.77v10.25h-3.67V432.82H320.9Zm19.66,15.94a3.48,3.48,0,0,1-3.48,3.48h-8.45v-3.7h8.26v-1.8h-7a3.52,3.52,0,0,1-3.5-3.48v-7a3.52,3.52,0,0,1,3.5-3.48h7.15a3.5,3.5,0,0,1,3.48,3.48v12.46h0Zm-10.46-12.26v6.58h6.79v-6.58h-6.79Z" transform="translate(-83.69 -376.35)"/></svg>